<?xml version="1.0" encoding="UTF-8" standalone="no"?>
<svg width="499px" height="469px" viewBox="0 0 499 469" version="1.1" xmlns="http://www.w3.org/2000/svg" xmlns:xlink="http://www.w3.org/1999/xlink">
    <!-- Generator: Sketch 3.8.3 (29802) - http://www.bohemiancoding.com/sketch -->
    <title>chart</title>
    <desc>Created with Sketch.</desc>
    <defs></defs>
    <g id="Page-1" stroke="none" stroke-width="1" fill="none" fill-rule="evenodd">
        <g id="chart" fill="#FFFFFF">
            <g id="Page-1">
                <g id="Group-14">
                    <g id="Group-9" transform="translate(12.000000, 205.000000)">
                        <path d="M18.3166667,49 L18.1533333,49 L3.45333333,44.9259259 C3.12666667,44.762963 2.8,44.437037 2.8,44.1111111 L0.35,10.7037037 C0.35,10.5407407 0.35,10.2148148 0.513333333,10.0518519 C0.676666667,10.0518519 1.00333333,9.88888889 1.16666667,9.88888889 L33.8333333,9.88888889 C33.9966667,9.88888889 34.3233333,10.0518519 34.4866667,10.2148148 C34.65,10.3777778 34.65,10.5407407 34.65,10.8666667 L31.3833333,44.2740741 C31.3833333,44.6 31.0566667,44.9259259 30.8933333,44.9259259 L18.6433333,49 L18.3166667,49 L18.3166667,49 L18.3166667,49 Z M4.43333333,43.4592593 L18.3166667,47.3703704 L29.75,43.6222222 L32.8533333,11.5185185 L1.98333333,11.5185185 L4.43333333,43.4592593 L4.43333333,43.4592593 L4.43333333,43.4592593 Z" id="Shape"></path>
                        <path d="M18.3166667,40.8518519 L18.1533333,40.8518519 L10.8033333,39.2222222 C10.4766667,39.2222222 10.3133333,38.8962963 10.15,38.7333333 L8.51666667,33.8444444 C8.35333333,33.3555556 8.68,33.0296296 9.00666667,32.8666667 C9.49666667,32.7037037 9.82333333,33.0296296 9.98666667,33.3555556 L11.4566667,37.7555556 L18.1533333,39.2222222 L24.85,36.9407407 L26.4833333,19.6666667 L7.7,19.6666667 C7.21,19.6666667 6.88333333,19.3407407 6.88333333,18.8518519 C6.88333333,18.362963 7.21,18.037037 7.7,18.037037 L27.3,18.037037 C27.4633333,18.037037 27.79,18.2 27.9533333,18.362963 C28.1166667,18.5259259 28.1166667,18.6888889 28.1166667,19.0148148 L26.4833333,37.7555556 C26.4833333,38.0814815 26.1566667,38.4074074 25.9933333,38.4074074 L18.6433333,40.8518519 L18.3166667,40.8518519 L18.3166667,40.8518519 L18.3166667,40.8518519 Z" id="Shape"></path>
                        <path d="M26.4833333,27.8148148 L9.33333333,27.8148148 C8.84333333,27.8148148 8.51666667,27.4888889 8.51666667,27 C8.51666667,26.5111111 8.84333333,26.1851852 9.33333333,26.1851852 L26.4833333,26.1851852 C26.9733333,26.1851852 27.3,26.5111111 27.3,27 C27.3,27.4888889 26.9733333,27.8148148 26.4833333,27.8148148 L26.4833333,27.8148148 L26.4833333,27.8148148 Z" id="Shape"></path>
                        <path d="M10.9666667,5 L7.7,5 C7.21,5 6.88333333,4.67407407 6.88333333,4.18518519 L6.88333333,0.925925926 C6.88333333,0.437037037 7.21,0.111111111 7.7,0.111111111 L10.9666667,0.111111111 C11.4566667,0.111111111 11.7833333,0.437037037 11.7833333,0.925925926 C11.7833333,1.41481481 11.4566667,1.74074074 10.9666667,1.74074074 L8.51666667,1.74074074 L8.51666667,3.37037037 L10.9666667,3.37037037 C11.4566667,3.37037037 11.7833333,3.6962963 11.7833333,4.18518519 C11.7833333,4.67407407 11.4566667,5 10.9666667,5 L10.9666667,5 L10.9666667,5 Z" id="Shape"></path>
                        <path d="M19.1333333,5 L15.8666667,5 C15.3766667,5 15.05,4.67407407 15.05,4.18518519 C15.05,3.6962963 15.3766667,3.37037037 15.8666667,3.37037037 L17.1733333,3.37037037 L15.3766667,1.57777778 C15.2133333,1.41481481 15.05,0.925925926 15.2133333,0.762962963 C15.2133333,0.274074074 15.54,0.111111111 15.8666667,0.111111111 L19.1333333,0.111111111 C19.6233333,0.111111111 19.95,0.437037037 19.95,0.925925926 C19.95,1.41481481 19.6233333,1.74074074 19.1333333,1.74074074 L17.8266667,1.74074074 L19.6233333,3.53333333 C19.7866667,3.6962963 19.95,4.18518519 19.7866667,4.34814815 C19.7866667,4.83703704 19.46,5 19.1333333,5 L19.1333333,5 L19.1333333,5 Z" id="Shape"></path>
                        <path d="M27.3,5 L24.0333333,5 C23.5433333,5 23.2166667,4.67407407 23.2166667,4.18518519 C23.2166667,3.6962963 23.5433333,3.37037037 24.0333333,3.37037037 L25.34,3.37037037 L23.5433333,1.57777778 C23.38,1.41481481 23.2166667,0.925925926 23.38,0.762962963 C23.38,0.274074074 23.7066667,0.111111111 24.0333333,0.111111111 L27.3,0.111111111 C27.79,0.111111111 28.1166667,0.437037037 28.1166667,0.925925926 C28.1166667,1.41481481 27.79,1.74074074 27.3,1.74074074 L25.9933333,1.74074074 L27.79,3.53333333 C27.9533333,3.6962963 28.1166667,4.18518519 27.9533333,4.34814815 C27.9533333,4.83703704 27.6266667,5 27.3,5 L27.3,5 L27.3,5 Z" id="Shape"></path>
                    </g>
                    <g id="Group-10" transform="translate(12.000000, 103.000000)">
                        <path d="M2.8,5.62962963 C2.31,5.62962963 1.98333333,5.3037037 1.98333333,4.81481481 L1.98333333,1.55555556 C1.98333333,1.06666667 2.31,0.740740741 2.8,0.740740741 C3.29,0.740740741 3.61666667,1.06666667 3.61666667,1.55555556 L3.61666667,4.81481481 C3.61666667,5.3037037 3.29,5.62962963 2.8,5.62962963 L2.8,5.62962963 L2.8,5.62962963 Z" id="Shape"></path>
                        <path d="M6.06666667,4 L3.61666667,4 C3.12666667,4 2.8,3.67407407 2.8,3.18518519 C2.8,2.6962963 3.12666667,2.37037037 3.61666667,2.37037037 L6.06666667,2.37037037 C6.55666667,2.37037037 6.88333333,2.6962963 6.88333333,3.18518519 C6.88333333,3.67407407 6.55666667,4 6.06666667,4 L6.06666667,4 L6.06666667,4 Z" id="Shape"></path>
                        <path d="M6.06666667,5.62962963 C5.57666667,5.62962963 5.25,5.3037037 5.25,4.81481481 L5.25,1.55555556 C5.25,1.06666667 5.57666667,0.740740741 6.06666667,0.740740741 C6.55666667,0.740740741 6.88333333,1.06666667 6.88333333,1.55555556 L6.88333333,4.81481481 C6.88333333,5.3037037 6.55666667,5.62962963 6.06666667,5.62962963 L6.06666667,5.62962963 L6.06666667,5.62962963 Z" id="Shape"></path>
                        <path d="M14.2333333,2.37037037 L10.9666667,2.37037037 C10.4766667,2.37037037 10.15,2.04444444 10.15,1.55555556 C10.15,1.06666667 10.4766667,0.740740741 10.9666667,0.740740741 L14.2333333,0.740740741 C14.7233333,0.740740741 15.05,1.06666667 15.05,1.55555556 C15.05,2.04444444 14.7233333,2.37037037 14.2333333,2.37037037 L14.2333333,2.37037037 L14.2333333,2.37037037 Z" id="Shape"></path>
                        <path d="M12.6,5.62962963 C12.11,5.62962963 11.7833333,5.3037037 11.7833333,4.81481481 L11.7833333,1.55555556 C11.7833333,1.06666667 12.11,0.740740741 12.6,0.740740741 C13.09,0.740740741 13.4166667,1.06666667 13.4166667,1.55555556 L13.4166667,4.81481481 C13.4166667,5.3037037 13.09,5.62962963 12.6,5.62962963 L12.6,5.62962963 L12.6,5.62962963 Z" id="Shape"></path>
                        <path d="M22.4,5.62962963 C22.2366667,5.62962963 21.91,5.62962963 21.7466667,5.46666667 L19.95,3.67407407 L19.95,4.97777778 C19.95,5.3037037 19.6233333,5.62962963 19.1333333,5.62962963 C18.6433333,5.62962963 18.3166667,5.3037037 18.3166667,4.81481481 L18.3166667,1.55555556 C18.3166667,1.22962963 18.48,0.903703704 18.8066667,0.740740741 C19.1333333,0.740740741 19.46,0.740740741 19.7866667,0.903703704 L22.4,3.67407407 L25.0133333,1.06666667 C25.34,0.740740741 25.6666667,0.740740741 25.9933333,0.740740741 C26.32,0.903703704 26.4833333,1.22962963 26.4833333,1.55555556 L26.4833333,4.81481481 C26.4833333,5.3037037 26.1566667,5.62962963 25.6666667,5.62962963 C25.1766667,5.62962963 24.85,5.3037037 24.85,4.81481481 L24.85,3.51111111 L23.0533333,5.3037037 C22.89,5.62962963 22.5633333,5.62962963 22.4,5.62962963 L22.4,5.62962963 L22.4,5.62962963 Z" id="Shape"></path>
                        <path d="M32.2,5.62962963 L30.5666667,5.62962963 C30.0766667,5.62962963 29.75,5.3037037 29.75,4.81481481 L29.75,1.55555556 C29.75,1.06666667 30.0766667,0.740740741 30.5666667,0.740740741 C31.0566667,0.740740741 31.3833333,1.06666667 31.3833333,1.55555556 L31.3833333,4 L32.2,4 C32.69,4 33.0166667,4.32592593 33.0166667,4.81481481 C33.0166667,5.3037037 32.69,5.62962963 32.2,5.62962963 L32.2,5.62962963 L32.2,5.62962963 Z" id="Shape"></path>
                        <path d="M18.3166667,49.6296296 L17.99,49.6296296 L4.10666667,44.7407407 C3.78,44.5777778 3.61666667,44.4148148 3.61666667,44.0888889 L0.35,11.4962963 C0.35,11.3333333 0.35,11.0074074 0.513333333,10.8444444 C0.676666667,10.6814815 1.00333333,10.5185185 1.16666667,10.5185185 L33.8333333,10.5185185 C33.9966667,10.5185185 34.3233333,10.6814815 34.4866667,10.8444444 C34.65,11.0074074 34.65,11.1703704 34.65,11.4962963 L31.3833333,44.0888889 C31.3833333,44.4148148 31.22,44.5777778 30.8933333,44.7407407 L18.6433333,49.6296296 L18.3166667,49.6296296 L18.3166667,49.6296296 L18.3166667,49.6296296 Z M5.25,43.2740741 L18.3166667,47.837037 L29.75,43.2740741 L32.8533333,12.1481481 L2.14666667,12.1481481 L5.25,43.2740741 L5.25,43.2740741 L5.25,43.2740741 Z" id="Shape"></path>
                        <path d="M18.3166667,41.4814815 L17.99,41.4814815 L10.64,39.037037 C10.4766667,39.037037 10.15,38.7111111 10.15,38.5481481 L8.51666667,34.4740741 C8.35333333,33.9851852 8.51666667,33.6592593 9.00666667,33.3333333 C9.49666667,33.1703704 9.82333333,33.3333333 10.15,33.8222222 L11.62,37.5703704 L18.3166667,39.8518519 L23.38,37.7333333 L24.85,28.4444444 L9.33333333,28.4444444 C9.00666667,28.4444444 8.68,28.1185185 8.51666667,27.7925926 L6.88333333,19.6444444 C6.88333333,19.4814815 6.88333333,19.1555556 7.04666667,18.9925926 C7.21,18.8296296 7.37333333,18.6666667 7.7,18.6666667 L27.3,18.6666667 C27.79,18.6666667 28.1166667,18.9925926 28.1166667,19.4814815 C28.1166667,19.9703704 27.79,20.2962963 27.3,20.2962963 L8.68,20.2962963 L9.98666667,26.8148148 L25.6666667,26.8148148 C25.83,26.8148148 26.1566667,26.9777778 26.32,27.1407407 C26.4833333,27.3037037 26.4833333,27.6296296 26.4833333,27.7925926 L24.85,38.3851852 C24.85,38.7111111 24.6866667,38.8740741 24.36,39.037037 L18.6433333,41.4814815 L18.3166667,41.4814815 L18.3166667,41.4814815 L18.3166667,41.4814815 Z" id="Shape"></path>
                    </g>
                    <g id="Group-11" transform="translate(5.000000, 0.000000)">
                        <path d="M48.1833333,49.8148148 L0.816666667,49.8148148 C0.326666667,49.8148148 0,49.4888889 0,49 L0,1.74074074 C0,1.25185185 0.326666667,0.925925926 0.816666667,0.925925926 L48.1833333,0.925925926 C48.6733333,0.925925926 49,1.25185185 49,1.74074074 L49,49 C49,49.4888889 48.6733333,49.8148148 48.1833333,49.8148148 L48.1833333,49.8148148 L48.1833333,49.8148148 Z M1.63333333,48.1851852 L47.3666667,48.1851852 L47.3666667,2.55555556 L1.63333333,2.55555556 L1.63333333,48.1851852 L1.63333333,48.1851852 L1.63333333,48.1851852 Z" id="Shape"></path>
                        <path d="M15.5166667,35.1481481 C15.0266667,35.1481481 14.7,34.8222222 14.7,34.3333333 L14.7,25.3703704 L14.7,25.3703704 L14.7,16.4074074 C14.7,16.0814815 15.0266667,15.5925926 15.3533333,15.5925926 C19.7633333,14.9407407 22.7033333,15.4296296 24.3366667,16.8962963 C25.48,17.8740741 25.97,19.3407407 25.97,20.9703704 C25.97,23.0888889 24.99,24.7185185 23.1933333,25.8592593 C21.2333333,27 18.4566667,27.3259259 16.17,26.5111111 L16.17,34.1703704 C16.3333333,34.8222222 16.0066667,35.1481481 15.5166667,35.1481481 L15.5166667,35.1481481 L15.5166667,35.1481481 Z M16.3333333,24.8814815 C18.13,25.6962963 20.7433333,25.5333333 22.54,24.5555556 C23.52,24.0666667 24.5,22.9259259 24.5,21.1333333 C24.5,19.8296296 24.1733333,18.8518519 23.3566667,18.2 C22.05,17.0592593 19.7633333,16.7333333 16.3333333,17.2222222 L16.3333333,24.8814815 L16.3333333,24.8814815 L16.3333333,24.8814815 Z" id="Shape"></path>
                        <path d="M31.85,35.1481481 C30.2166667,35.1481481 28.7466667,34.4962963 27.93,33.8444444 C27.6033333,33.5185185 27.6033333,33.0296296 27.93,32.7037037 C28.2566667,32.3777778 28.7466667,32.3777778 29.0733333,32.7037037 C29.7266667,33.3555556 31.6866667,34.0074074 32.9933333,33.3555556 C33.81,33.0296296 34.1366667,32.2148148 34.1366667,31.0740741 C34.1366667,29.4444444 33.1566667,28.9555556 31.1966667,28.3037037 C29.5633333,27.8148148 27.6033333,27 27.6033333,24.5555556 C27.6033333,22.762963 28.42,21.4592593 29.89,20.8074074 C31.85,19.9925926 34.3,20.6444444 35.6066667,21.7851852 C35.9333333,22.1111111 35.9333333,22.6 35.6066667,22.9259259 C35.28,23.2518519 34.79,23.2518519 34.4633333,22.9259259 C33.6466667,22.1111111 31.85,21.7851852 30.5433333,22.2740741 C29.7266667,22.6 29.2366667,23.4148148 29.2366667,24.3925926 C29.2366667,25.6962963 30.0533333,26.0222222 31.85,26.6740741 C33.4833333,27.162963 35.77,27.9777778 35.77,30.9111111 C35.77,33.3555556 34.4633333,34.3333333 33.6466667,34.6592593 C33.1566667,34.9851852 32.5033333,35.1481481 31.85,35.1481481 L31.85,35.1481481 L31.85,35.1481481 Z" id="Shape"></path>
                        <path d="M44.9166667,46.5555556 L4.08333333,46.5555556 C3.59333333,46.5555556 3.26666667,46.2296296 3.26666667,45.7407407 L3.26666667,5 C3.26666667,4.51111111 3.59333333,4.18518519 4.08333333,4.18518519 L44.9166667,4.18518519 C45.4066667,4.18518519 45.7333333,4.51111111 45.7333333,5 L45.7333333,45.7407407 C45.7333333,46.2296296 45.4066667,46.5555556 44.9166667,46.5555556 L44.9166667,46.5555556 L44.9166667,46.5555556 Z M4.9,44.9259259 L44.1,44.9259259 L44.1,5.81481481 L4.9,5.81481481 L4.9,44.9259259 L4.9,44.9259259 L4.9,44.9259259 Z" id="Shape"></path>
                    </g>
                    <g id="Group-13" transform="translate(205.000000, 21.000000)">
                        <g id="Group-12">
                            <rect id="1-copy" opacity="0.6" x="0" y="0.06481481" width="293.631681" height="9.96064815" rx="4.98032407"></rect>
                            <rect id="1-copy" x="0" y="0.06481481" width="239.257813" height="9.96064815" rx="4.98032407"></rect>
                        </g>
                        <g id="Group-12-Copy" transform="translate(0.000000, 103.000000)">
                            <rect id="1-copy" opacity="0.6" x="0" y="0.06481481" width="293.631681" height="9.96064815" rx="4.98032407"></rect>
                            <rect id="1-copy" x="0" y="0.06481481" width="146.617188" height="9.96064815" rx="4.98032407"></rect>
                        </g>
                        <g id="Group-12-Copy-2" transform="translate(0.000000, 204.000000)">
                            <rect id="1-copy" opacity="0.6" x="0" y="0.06481481" width="293.631681" height="9.96064815" rx="4.98032407"></rect>
                            <rect id="1-copy" x="0" y="0.06481481" width="217.820313" height="9.96064815" rx="4.98032407"></rect>
                        </g>
                        <g id="Group-12-Copy-3" transform="translate(0.000000, 306.000000)">
                            <rect id="1-copy" opacity="0.6" x="0" y="0.06481481" width="293.631681" height="9.96064815" rx="4.98032407"></rect>
                            <rect id="1-copy" x="0" y="0.06481481" width="258.398437" height="9.96064815" rx="4.98032407"></rect>
                        </g>
                        <g id="Group-12-Copy-4" transform="translate(0.000000, 415.442130)">
                            <rect id="1-copy" opacity="0.6" x="0" y="0.06481481" width="293.631681" height="9.96064815" rx="4.98032407"></rect>
                            <rect id="1-copy" x="0" y="0.06481481" width="168.820313" height="9.96064815" rx="4.98032407"></rect>
                        </g>
                    </g>
                    <g id="Group-8" transform="translate(6.000000, 307.000000)">
                        <path d="M41.707233,37.870624 L4.84967826,37.870624 C2.1765356,37.870624 0,35.5423744 0,32.6829021 L0,5.70674784 C0,2.84727549 2.1765356,0.519025875 4.84967826,0.519025875 L41.707233,0.519025875 C44.3803756,0.519025875 46.5569112,2.84727549 46.5569112,5.70674784 L46.5569112,32.6829021 C46.5569112,35.5423744 44.3803756,37.870624 41.707233,37.870624 L41.707233,37.870624 L41.707233,37.870624 Z M4.84967826,2.59411466 C3.24540469,2.59411466 1.9398713,3.99064942 1.9398713,5.70674784 L1.9398713,32.6829021 C1.9398713,34.3990005 3.24540469,35.7955353 4.84967826,35.7955353 L41.707233,35.7955353 C43.3115066,35.7955353 44.6170399,34.3990005 44.6170399,32.6829021 L44.6170399,5.70674784 C44.6170399,3.99064942 43.3115066,2.59411466 41.707233,2.59411466 L4.84967826,2.59411466 L4.84967826,2.59411466 L4.84967826,2.59411466 Z" id="Shape"></path>
                        <path d="M37.8662878,48.246068 L37.8274904,48.246068 L10.6692922,48.246068 C10.1338877,48.246068 9.69935651,47.7812481 9.69935651,47.2085236 C9.69935651,44.3490512 11.8758921,42.0208016 14.5490348,42.0208016 L33.9477478,42.0208016 C36.5200171,42.0208016 38.632537,44.1747438 38.7877267,46.8848097 C38.8187646,46.9864891 38.8362235,47.0943937 38.8362235,47.2085236 C38.8362235,47.7812481 38.4016923,48.246068 37.8662878,48.246068 L37.8662878,48.246068 L37.8662878,48.246068 Z M11.8041169,46.1709792 L36.6907258,46.1709792 C36.2891724,44.9632775 35.210604,44.0958904 33.9458079,44.0958904 L14.5470949,44.0958904 C13.2842387,44.0958904 12.2056702,44.9632775 11.8041169,46.1709792 L11.8041169,46.1709792 L11.8041169,46.1709792 Z" id="Shape"></path>
                        <path d="M45.5869756,29.5702689 L0.969935651,29.5702689 C0.434531172,29.5702689 0,29.105449 0,28.5327245 C0,27.96 0.434531172,27.4951801 0.969935651,27.4951801 L45.5869756,27.4951801 C46.1223801,27.4951801 46.5569112,27.96 46.5569112,28.5327245 C46.5569112,29.105449 46.1223801,29.5702689 45.5869756,29.5702689 L45.5869756,29.5702689 L45.5869756,29.5702689 Z" id="Shape"></path>
                        <path d="M37.8856865,33.7204465 C37.350282,33.7204465 36.9060515,33.2556266 36.9060515,32.6829021 C36.9060515,32.1101776 37.3308833,31.6453577 37.8662878,31.6453577 L37.8856865,31.6453577 C38.421091,31.6453577 38.8556222,32.1101776 38.8556222,32.6829021 C38.8556222,33.2556266 38.421091,33.7204465 37.8856865,33.7204465 L37.8856865,33.7204465 L37.8856865,33.7204465 Z" id="Shape"></path>
                        <path d="M45.5869756,6.74429224 L0.969935651,6.74429224 C0.434531172,6.74429224 0,6.27947235 0,5.70674784 C0,5.13402334 0.434531172,4.66920345 0.969935651,4.66920345 L45.5869756,4.66920345 C46.1223801,4.66920345 46.5569112,5.13402334 46.5569112,5.70674784 C46.5569112,6.27947235 46.1223801,6.74429224 45.5869756,6.74429224 L45.5869756,6.74429224 L45.5869756,6.74429224 Z" id="Shape"></path>
                        <ellipse id="Oval" cx="24.2483913" cy="32.6829021" rx="1.9398713" ry="2.07508879"></ellipse>
                        <path d="M22.30852,44.0958904 C21.7731155,44.0958904 21.3385843,43.6310705 21.3385843,43.058346 L21.3385843,36.8330797 C21.3385843,36.2603551 21.7731155,35.7955353 22.30852,35.7955353 C22.8439245,35.7955353 23.2784556,36.2603551 23.2784556,36.8330797 L23.2784556,43.058346 C23.2784556,43.6310705 22.8439245,44.0958904 22.30852,44.0958904 L22.30852,44.0958904 L22.30852,44.0958904 Z" id="Shape"></path>
                        <path d="M26.1882626,44.0958904 C25.6528581,44.0958904 25.2183269,43.6310705 25.2183269,43.058346 L25.2183269,36.8330797 C25.2183269,36.2603551 25.6528581,35.7955353 26.1882626,35.7955353 C26.7236671,35.7955353 27.1581982,36.2603551 27.1581982,36.8330797 L27.1581982,43.058346 C27.1581982,43.6310705 26.7236671,44.0958904 26.1882626,44.0958904 L26.1882626,44.0958904 L26.1882626,44.0958904 Z" id="Shape"></path>
                        <path d="M16.4889061,25.4200913 L12.6091635,25.4200913 C12.073759,25.4200913 11.6392278,24.9552714 11.6392278,24.3825469 L11.6392278,20.2323694 C11.6392278,19.6596449 12.073759,19.194825 12.6091635,19.194825 L16.4889061,19.194825 C17.0243105,19.194825 17.4588417,19.6596449 17.4588417,20.2323694 L17.4588417,24.3825469 C17.4588417,24.9552714 17.0243105,25.4200913 16.4889061,25.4200913 L16.4889061,25.4200913 L16.4889061,25.4200913 Z M13.5790991,23.3450025 L15.5189704,23.3450025 L15.5189704,21.2699137 L13.5790991,21.2699137 L13.5790991,23.3450025 L13.5790991,23.3450025 L13.5790991,23.3450025 Z" id="Shape"></path>
                        <path d="M33.9477478,15.0446474 L30.0680052,15.0446474 C29.5326007,15.0446474 29.0980695,14.5798275 29.0980695,14.007103 L29.0980695,9.85692542 C29.0980695,9.28420091 29.5326007,8.81938102 30.0680052,8.81938102 L33.9477478,8.81938102 C34.4831523,8.81938102 34.9176834,9.28420091 34.9176834,9.85692542 L34.9176834,14.007103 C34.9176834,14.5798275 34.4831523,15.0446474 33.9477478,15.0446474 L33.9477478,15.0446474 L33.9477478,15.0446474 Z M31.0379408,12.9695586 L32.9778121,12.9695586 L32.9778121,10.8944698 L31.0379408,10.8944698 L31.0379408,12.9695586 L31.0379408,12.9695586 L31.0379408,12.9695586 Z" id="Shape"></path>
                        <path d="M16.4889061,22.3074581 C16.1513685,22.3074581 15.8254701,22.1207002 15.6450621,21.7845358 C15.3792997,21.2865145 15.540309,20.6536124 16.0058781,20.3693252 L29.5849772,12.0689701 C30.0486065,11.7805327 30.6402672,11.9569153 30.9079695,12.4549366 C31.1737318,12.9529579 31.0127225,13.58586 30.5471534,13.8701471 L16.9680543,22.1705023 C16.8186842,22.2638813 16.6518553,22.3074581 16.4889061,22.3074581 L16.4889061,22.3074581 L16.4889061,22.3074581 Z" id="Shape"></path>
                    </g>
                    <g id="Group-7" transform="translate(0.000000, 408.000000)">
                        <path d="M57.9129179,29.877382 L42.3939474,13.2766717 C42.0156725,12.8720294 41.4007333,12.8720294 41.0224584,13.2766717 C40.6441835,13.6813141 40.6441835,14.3391172 41.0224584,14.7437595 L55.8547144,30.6098884 L41.0224584,46.4760173 C40.6441835,46.8806596 40.6441835,47.5384627 41.0224584,47.943105 C41.2125658,48.1443886 41.4608693,48.246068 41.7091729,48.246068 C41.9574764,48.246068 42.2057799,48.1464637 42.3939474,47.9451801 L57.9129179,31.3444698 C58.2911928,30.9398275 58.2911928,30.2820244 57.9129179,29.877382 L57.9129179,29.877382 L57.9129179,29.877382 Z M17.1756205,13.2745967 C16.7973456,12.8699543 16.1824064,12.8699543 15.8041315,13.2745967 L0.285161081,29.875307 C-0.0931138225,30.2799493 -0.0931138225,30.9377524 0.285161081,31.3423947 L15.8041315,47.943105 C15.9942389,48.1443886 16.2406025,48.246068 16.4889061,48.246068 C16.7372096,48.246068 16.9855131,48.1464637 17.1736806,47.9410299 C17.5519555,47.5363876 17.5519555,46.8785845 17.1736806,46.4739422 L2.34336453,30.6078133 L17.1756205,14.7416844 C17.5538954,14.3370421 17.5538954,13.679239 17.1756205,13.2745967 L17.1756205,13.2745967 L17.1756205,13.2745967 Z M40.1204183,0.589578894 C39.6257511,0.384145104 39.0612485,0.643531202 38.8633817,1.17682902 L17.5247973,59.2793151 C17.3288703,59.8126129 17.575234,60.4143886 18.0737809,60.6239726 C18.1921131,60.6737747 18.3123851,60.6966007 18.4287774,60.6966007 C18.8148118,60.6966007 19.1814474,60.4475901 19.3308175,60.0367225 L40.6694018,1.93423643 C40.8672687,1.40093861 40.6209051,0.799162861 40.1204183,0.589578894 L40.1204183,0.589578894 L40.1204183,0.589578894 Z" id="Shape"></path>
                    </g>
                </g>
            </g>
        </g>
    </g>
</svg>