<?xml version="1.0" encoding="UTF-8" standalone="no"?>
<svg width="71px" height="70px" viewBox="0 0 71 70" version="1.1" xmlns="http://www.w3.org/2000/svg" xmlns:xlink="http://www.w3.org/1999/xlink">
    <!-- Generator: Sketch 3.8.3 (29802) - http://www.bohemiancoding.com/sketch -->
    <title>captain america.1</title>
    <desc>Created with Sketch.</desc>
    <defs></defs>
    <g id="Page-1" stroke="none" stroke-width="1" fill="none" fill-rule="evenodd">
        <g id="captain-america.1" fill="#FFFFFF">
            <g id="Layer_1">
                <g id="Group">
                    <path d="M34.6064516,49 C27.1741935,49 21.3677419,43.6333333 18.8129032,35 C18.5806452,35 18.3483871,35 18.3483871,34.7666667 L17.883871,34.7666667 L17.883871,34.7666667 C15.5612903,34.7666667 13.9354839,31.7333333 13.9354839,27.7666667 C13.9354839,26.6 14.1677419,25.4333333 14.4,24.5 C14.1677419,23.1 13.9354839,21.2333333 13.9354839,19.8333333 C13.9354839,9.1 23.4580645,0 34.8387097,0 C45.9870968,0 54.5806452,8.86666667 54.5806452,20.0666667 C54.5806452,20.5333333 54.8129032,21 55.0451613,21.7 C55.5096774,22.6333333 55.7419355,23.5666667 55.7419355,24.5 C55.9741935,25.2 55.7419355,25.9 55.7419355,26.6 L55.7419355,27.7666667 C55.7419355,31.7333333 53.883871,34.7666667 51.5612903,34.7666667 L51.3290323,34.7666667 C51.0967742,34.7666667 50.8645161,34.7666667 50.8645161,35 C48.5419355,43.4 42.0387097,49 34.6064516,49 L34.6064516,49 Z M19.7419355,32.6666667 L20.2064516,32.6666667 C20.4387097,32.9 20.9032258,33.1333333 20.9032258,33.3666667 C22.9935484,41.5333333 28.1032258,46.4333333 34.6064516,46.4333333 C41.3419355,46.4333333 46.916129,41.3 48.7741935,33.3666667 C48.7741935,32.9 49.0064516,32.6666667 49.4709677,32.6666667 L50.1677419,32.6666667 C50.4,32.6666667 50.6322581,32.6666667 50.8645161,32.4333333 C51.3290323,32.4333333 51.5612903,32.2 51.7935484,32.2 C52.4903226,32.2 53.6516129,30.3333333 53.6516129,27.5333333 L53.6516129,26.1333333 L53.6516129,24.5 L53.6516129,23.8 C53.6516129,23.5666667 53.4193548,22.6333333 53.1870968,22.1666667 C52.9548387,21.4666667 52.4903226,20.5333333 52.4903226,19.6 C52.2580645,10.0333333 44.5935484,2.33333333 34.8387097,2.33333333 C24.8516129,2.33333333 16.2580645,10.2666667 16.2580645,19.8333333 C16.2580645,21.2333333 16.4903226,23.1 16.7225806,24.2666667 L16.7225806,24.9666667 C16.4903226,25.6666667 16.2580645,26.6 16.2580645,27.7666667 C16.2580645,30.5666667 17.4193548,32.4333333 18.116129,32.4333333 C18.3483871,32.4333333 18.5806452,32.4333333 19.0451613,32.6666667 C19.2774194,32.6666667 19.5096774,32.6666667 19.7419355,32.9 C19.5096774,32.6666667 19.7419355,32.6666667 19.7419355,32.6666667 L19.7419355,32.6666667 Z" id="Shape"></path>
                    <path d="M19.7419355,35 C19.0451613,35 18.5806452,34.5333333 18.5806452,33.8333333 C18.5806452,33.1333333 19.0451613,32.6666667 19.7419355,32.6666667 C23.9225806,32.6666667 34.3741935,29.1666667 34.3741935,29.1666667 C35.0709677,28.9333333 35.5354839,29.4 35.7677419,29.8666667 C36,30.5666667 35.5354839,31.0333333 35.0709677,31.2666667 C34.8387097,31.5 24.3870968,35 19.7419355,35 L19.7419355,35 Z" id="Shape"></path>
                    <path d="M49.9354839,35 C45.2903226,35 34.8387097,31.5 34.3741935,31.5 C33.6774194,31.2666667 33.4451613,30.5666667 33.6774194,30.1 C33.9096774,29.4 34.6064516,29.1666667 35.0709677,29.4 C35.0709677,29.4 45.5225806,32.9 49.7032258,32.9 C50.4,32.9 50.8645161,33.3666667 50.8645161,34.0666667 C50.8645161,34.7666667 50.6322581,35 49.9354839,35 L49.9354839,35 Z" id="Shape"></path>
                    <path d="M38.3225806,18.6666667 C37.8580645,18.6666667 37.3935484,18.4333333 37.1612903,17.7333333 L34.8387097,9.8 L32.516129,17.7333333 C32.283871,18.4333333 31.5870968,18.6666667 31.1225806,18.4333333 C30.4258065,18.2 30.1935484,17.5 30.4258065,17.0333333 L33.9096774,5.36666667 C34.1419355,4.43333333 35.7677419,4.43333333 36.2322581,5.36666667 L39.716129,17.0333333 C39.9483871,17.7333333 39.483871,18.2 39.0193548,18.4333333 C38.5548387,18.6666667 38.3225806,18.6666667 38.3225806,18.6666667 L38.3225806,18.6666667 Z" id="Shape"></path>
                    <path d="M37.1612903,16.3333333 L32.516129,16.3333333 C31.8193548,16.3333333 31.3548387,15.8666667 31.3548387,15.1666667 C31.3548387,14.4666667 31.8193548,14 32.516129,14 L37.1612903,14 C37.8580645,14 38.3225806,14.4666667 38.3225806,15.1666667 C38.3225806,15.8666667 37.8580645,16.3333333 37.1612903,16.3333333 L37.1612903,16.3333333 Z" id="Shape"></path>
                    <path d="M15.0967742,25.6666667 C14.6322581,25.6666667 14.1677419,25.4333333 14.1677419,24.9666667 L9.52258065,15.6333333 C9.29032258,15.4 9.29032258,15.1666667 9.29032258,14.9333333 L11.6129032,5.6 C11.8451613,5.13333333 12.3096774,4.66666667 12.7741935,4.66666667 C13.2387097,4.66666667 13.7032258,5.13333333 13.9354839,5.6 L16.2580645,18.4333333 C16.2580645,19.1333333 16.0258065,19.6 15.3290323,19.8333333 C14.6322581,19.8333333 14.1677419,19.6 13.9354839,18.9 L12.5419355,11.4333333 L11.6129032,14.9333333 L16.0258065,23.8 C16.2580645,24.2666667 16.0258065,24.9666667 15.5612903,25.4333333 C15.5612903,25.6666667 15.3290323,25.6666667 15.0967742,25.6666667 L15.0967742,25.6666667 Z" id="Shape"></path>
                    <path d="M54.5806452,25.6666667 C54.3483871,25.6666667 54.116129,25.6666667 54.116129,25.4333333 C53.6516129,25.2 53.4193548,24.5 53.6516129,23.8 L58.0645161,14.9333333 L56.9032258,10.2666667 L54.5806452,18.9 C54.3483871,19.6 53.6516129,19.8333333 53.1870968,19.8333333 C52.4903226,19.6 52.2580645,19.1333333 52.2580645,18.4333333 L55.7419355,5.6 C55.9741935,4.9 56.4387097,4.66666667 56.9032258,4.66666667 C57.3677419,4.66666667 57.8322581,5.13333333 58.0645161,5.6 L60.3870968,14.9333333 L60.3870968,15.6333333 L55.7419355,24.9666667 C55.5096774,25.4333333 55.0451613,25.6666667 54.5806452,25.6666667 L54.5806452,25.6666667 Z" id="Shape"></path>
                    <path d="M42.9677419,28 C39.2516129,28 37.1612903,26.1333333 37.1612903,24.5 C37.1612903,22.8666667 39.2516129,21 42.9677419,21 C44.3612903,21 48.7741935,21 48.7741935,24.5 C48.7741935,28 44.3612903,28 42.9677419,28 L42.9677419,28 Z M39.483871,24.5 C39.716129,24.7333333 40.6451613,25.6666667 42.9677419,25.6666667 C46.4516129,25.6666667 46.4516129,24.7333333 46.4516129,24.5 C46.4516129,24.2666667 46.4516129,23.3333333 42.9677419,23.3333333 C40.6451613,23.3333333 39.716129,24.2666667 39.483871,24.5 L39.483871,24.5 Z" id="Shape"></path>
                    <path d="M68.516129,70 L42.9677419,70 C42.5032258,70 42.2709677,69.7666667 42.0387097,69.5333333 C41.8064516,69.3 41.8064516,68.8333333 42.0387097,68.3666667 L43.4322581,65.3333333 L38.3225806,65.3333333 C37.8580645,65.3333333 37.6258065,65.1 37.3935484,64.8666667 L34.8387097,61.3666667 L32.283871,64.8666667 C32.0516129,65.1 31.8193548,65.3333333 31.3548387,65.3333333 L26.2451613,65.3333333 L27.6387097,68.3666667 C27.8709677,68.8333333 27.8709677,69.0666667 27.6387097,69.5333333 C27.4064516,70 27.1741935,70 26.7096774,70 L1.16129032,70 C0.464516129,70 0,69.5333333 0,68.8333333 L0,59.9666667 C0,55.7666667 2.55483871,52.0333333 6.73548387,50.6333333 L19.9741935,44.8 C20.4387097,44.5666667 20.9032258,44.8 21.3677419,45.0333333 C25.083871,49 29.7290323,51.3333333 34.8387097,51.3333333 C39.9483871,51.3333333 44.5935484,49 48.3096774,45.0333333 C48.5419355,44.5666667 49.2387097,44.5666667 49.7032258,44.8 L63.6387097,51.1 C67.5870968,52.5 70.1419355,56.2333333 70.1419355,60.4333333 L70.1419355,68.8333333 C69.6774194,69.5333333 69.2129032,70 68.516129,70 L68.516129,70 Z M44.8258065,67.6666667 L67.3548387,67.6666667 L67.3548387,60.4333333 C67.3548387,57.1666667 65.2645161,54.3666667 62.2451613,53.2 L62.2451613,53.2 L49.0064516,47.1333333 C44.8258065,51.3333333 39.716129,53.6666667 34.6064516,53.6666667 C29.2645161,53.6666667 24.1548387,51.3333333 20.2064516,47.1333333 L7.66451613,52.7333333 C4.41290323,53.9 2.32258065,56.7 2.32258065,59.9666667 L2.32258065,67.6666667 L24.8516129,67.6666667 L23.4580645,64.6333333 C23.2258065,64.1666667 23.2258065,63.9333333 23.4580645,63.4666667 C23.6903226,63 24.1548387,63 24.3870968,63 L30.8903226,63 L33.9096774,58.8 C34.3741935,58.1 35.3032258,58.1 35.7677419,58.8 L38.7870968,63 L45.2903226,63 C45.7548387,63 45.9870968,63.2333333 46.2193548,63.4666667 C46.4516129,63.7 46.4516129,64.1666667 46.2193548,64.6333333 L44.8258065,67.6666667 L44.8258065,67.6666667 Z" id="Shape"></path>
                    <path d="M38.3225806,39.6666667 L31.3548387,39.6666667 C30.6580645,39.6666667 30.1935484,39.2 30.1935484,38.5 C30.1935484,37.8 30.6580645,37.3333333 31.3548387,37.3333333 L38.3225806,37.3333333 C39.0193548,37.3333333 39.483871,37.8 39.483871,38.5 C39.483871,39.2 39.0193548,39.6666667 38.3225806,39.6666667 L38.3225806,39.6666667 Z" id="Shape"></path>
                    <path d="M26.7096774,28 C25.316129,28 20.9032258,28 20.9032258,24.5 C20.9032258,21 25.316129,21 26.7096774,21 C30.4258065,21 32.516129,22.8666667 32.516129,24.5 C32.516129,26.1333333 30.4258065,28 26.7096774,28 L26.7096774,28 Z M26.7096774,23.3333333 C23.2258065,23.3333333 23.2258065,24.2666667 23.2258065,24.5 C23.2258065,24.7333333 23.2258065,25.6666667 26.7096774,25.6666667 C29.0322581,25.6666667 29.9612903,24.9666667 30.1935484,24.5 C29.9612903,24.2666667 29.0322581,23.3333333 26.7096774,23.3333333 L26.7096774,23.3333333 Z" id="Shape"></path>
                </g>
            </g>
        </g>
    </g>
</svg>