<?xml version="1.0" encoding="UTF-8" standalone="no"?>
<svg width="47px" height="74px" viewBox="0 0 47 74" version="1.1" xmlns="http://www.w3.org/2000/svg" xmlns:xlink="http://www.w3.org/1999/xlink">
    <!-- Generator: Sketch 3.8.3 (29802) - http://www.bohemiancoding.com/sketch -->
    <title>Group 4</title>
    <desc>Created with Sketch.</desc>
    <defs></defs>
    <g id="Page-1" stroke="none" stroke-width="1" fill="none" fill-rule="evenodd">
        <g id="Group-4" fill="#FFFFFF">
            <path d="M37.370557,73.4292279 L9.02047928,73.4292279 C4.12364767,73.4292279 0,69.5130025 0,64.8624847 L0,8.56674326 C0,3.91622549 4.12364767,0 9.02047928,0 L37.370557,0 C42.2673886,0 46.3910363,3.91622549 46.3910363,8.56674326 L46.3910363,64.8624847 C46.3910363,69.5130025 42.2673886,73.4292279 37.370557,73.4292279 L37.370557,73.4292279 Z M9.02047928,2.44764093 C5.41228757,2.44764093 2.5772798,5.14004596 2.5772798,8.56674326 L2.5772798,64.8624847 C2.5772798,68.289182 5.41228757,70.981587 9.02047928,70.981587 L37.370557,70.981587 C40.9787487,70.981587 43.8137565,68.289182 43.8137565,64.8624847 L43.8137565,8.56674326 C43.8137565,5.14004596 40.9787487,2.44764093 37.370557,2.44764093 L9.02047928,2.44764093 L9.02047928,2.44764093 Z" id="XMLID_522_"></path>
            <path d="M45.1023964,12.2382047 L1.2886399,12.2382047 C0.515455959,12.2382047 0,11.7486765 0,11.0143842 C0,10.2800919 0.515455959,9.79056373 1.2886399,9.79056373 L45.1023964,9.79056373 C45.8755804,9.79056373 46.3910363,10.2800919 46.3910363,11.0143842 C46.3910363,11.7486765 45.8755804,12.2382047 45.1023964,12.2382047 L45.1023964,12.2382047 Z" id="XMLID_521_"></path>
            <path d="M43.8137565,61.1910233 L2.5772798,61.1910233 C1.80409586,61.1910233 1.2886399,60.7014951 1.2886399,59.9672028 C1.2886399,59.2329105 1.80409586,58.7433824 2.5772798,58.7433824 L43.8137565,58.7433824 C44.5869405,58.7433824 45.1023964,59.2329105 45.1023964,59.9672028 C45.1023964,60.7014951 44.5869405,61.1910233 43.8137565,61.1910233 L43.8137565,61.1910233 Z" id="XMLID_520_"></path>
            <path d="M29.6387176,7.34292279 L16.7523187,7.34292279 C15.9791347,7.34292279 15.4636788,6.85339461 15.4636788,6.11910233 C15.4636788,5.38481005 15.9791347,4.89528186 16.7523187,4.89528186 L29.6387176,4.89528186 C30.4119016,4.89528186 30.9273575,5.38481005 30.9273575,6.11910233 C30.9273575,6.85339461 30.4119016,7.34292279 29.6387176,7.34292279 L29.6387176,7.34292279 Z" id="XMLID_519_"></path>
            <path d="M37.370557,7.34292279 C36.5973731,7.34292279 36.0819171,6.85339461 36.0819171,6.11910233 C36.0819171,5.38481005 36.5973731,4.89528186 37.370557,4.89528186 L37.370557,4.89528186 C38.143741,4.89528186 38.6591969,5.38481005 38.6591969,6.11910233 C38.6591969,6.85339461 38.143741,7.34292279 37.370557,7.34292279 L37.370557,7.34292279 Z" id="XMLID_518_"></path>
            <ellipse id="XMLID_517_" cx="23.1955182" cy="66.0863051" rx="2.5772798" ry="2.44764093"></ellipse>
        </g>
    </g>
</svg>