<?xml version="1.0" encoding="UTF-8" standalone="no"?>
<svg width="81px" height="74px" viewBox="0 0 81 74" version="1.1" xmlns="http://www.w3.org/2000/svg" xmlns:xlink="http://www.w3.org/1999/xlink">
    <!-- Generator: Sketch 3.8.3 (29802) - http://www.bohemiancoding.com/sketch -->
    <title>Group 5</title>
    <desc>Created with Sketch.</desc>
    <defs></defs>
    <g id="Page-1" stroke="none" stroke-width="1" fill="none" fill-rule="evenodd">
        <g id="Group-5" transform="translate(0.520861, 0.506316)" fill="#FFFFFF">
            <path d="M25.1518745,73.3203679 C24.9405988,73.3203679 24.7259695,73.2821492 24.5180473,73.2025268 C23.6628836,72.8712976 23.2503928,71.941308 23.6025191,71.1259747 L53.7847685,1.05826635 C54.1368947,0.246117908 55.1228482,-0.142439384 55.9713048,0.188789783 C56.8264685,0.520018949 57.2389593,1.45000853 56.886833,2.26534187 L26.7045836,72.3330502 C26.4396505,72.9477351 25.8125304,73.3203679 25.1518745,73.3203679 L25.1518745,73.3203679 Z" id="Shape"></path>
            <path d="M58.6877072,60.5807846 C58.3020452,60.5807846 57.9130295,60.4533887 57.5977927,60.1954122 C56.8935402,59.6221309 56.8130542,58.6188887 57.4166992,57.9500606 L76.5991955,36.6940658 L57.4133456,15.4348861 C56.8097006,14.7692429 56.8901866,13.7628158 57.5944391,13.1895346 C58.2986916,12.6162533 59.3550703,12.6926908 59.9587153,13.3615189 L80.0802149,35.6557898 C80.6201418,36.2513653 80.6201418,37.1303966 80.0802149,37.7259721 L59.9587153,60.0202429 C59.6300641,60.3928757 59.1605625,60.5807846 58.6877072,60.5807846 L58.6877072,60.5807846 Z" id="Shape"></path>
            <path d="M21.7982913,60.5807846 C21.325436,60.5807846 20.8559344,60.3928757 20.5272832,60.0234278 L0.405783576,37.729157 C-0.134143331,37.1335814 -0.134143331,36.2545502 0.405783576,35.6589747 L20.5272832,13.3647038 C21.1309282,12.6958757 22.1906605,12.6194382 22.8915594,13.1927195 C23.5924583,13.7628158 23.6762979,14.7692429 23.0692993,15.4348861 L3.88680301,36.6940658 L23.0726529,57.9532455 C23.6762979,58.6188887 23.5958119,59.6253158 22.8915594,60.1985971 C22.572969,60.4533887 22.1839533,60.5807846 21.7982913,60.5807846 L21.7982913,60.5807846 Z" id="Shape"></path>
        </g>
    </g>
</svg>