<?xml version="1.0" encoding="UTF-8" standalone="no"?>
<svg width="29px" height="29px" viewBox="0 0 29 29" version="1.1" xmlns="http://www.w3.org/2000/svg" xmlns:xlink="http://www.w3.org/1999/xlink">
    <!-- Generator: Sketch 3.8.3 (29802) - http://www.bohemiancoding.com/sketch -->
    <title>Group</title>
    <desc>Created with Sketch.</desc>
    <defs></defs>
    <g id="Page-1" stroke="none" stroke-width="1" fill="none" fill-rule="evenodd">
        <g id="Group" fill="#93063E">
            <path d="M11,24.5 C4.1,24.5 0.5,19.6 0.5,14.7 C0.5,9.4 3.9,0.5 27,0.5 C27.2,0.5 27.4,0.6 27.5,0.8 C27.6,1 27.5,1.2 27.4,1.3 C25.1,3.6 22.7,6.5 21.5,12.1 C20.5,16.5 18.8,24.5 11,24.5 L11,24.5 Z M25.8,1.5 C4.7,1.8 1.5,9.9 1.5,14.8 C1.5,19 4.5,23.6 11,23.6 C18,23.6 19.5,16.4 20.5,12.1 C21.6,6.8 23.7,3.8 25.8,1.5 L25.8,1.5 Z" id="XMLID_795_"></path>
            <path d="M1,27.5 C0.7,27.5 0.5,27.3 0.5,27 C0.5,23.2 6.7,11.5 16.8,6.6 C17,6.5 17.3,6.6 17.5,6.8 C17.7,7 17.5,7.3 17.3,7.5 C7.1,12.4 1.5,24 1.5,27 C1.5,27.3 1.3,27.5 1,27.5 L1,27.5 Z" id="XMLID_794_"></path>
            <path d="M12,24.5 C5.1,24.5 1.5,19.6 1.5,14.7 C1.5,9.4 4.9,0.5 28,0.5 C28.2,0.5 28.4,0.6 28.5,0.8 C28.6,1 28.5,1.2 28.4,1.3 C26.1,3.6 23.7,6.5 22.5,12.1 C21.5,16.5 19.8,24.5 12,24.5 L12,24.5 Z M26.8,1.5 C5.7,1.8 2.5,9.9 2.5,14.8 C2.5,19 5.5,23.6 12,23.6 C19,23.6 20.5,16.4 21.5,12.1 C22.6,6.8 24.7,3.8 26.8,1.5 L26.8,1.5 Z" id="XMLID_795_"></path>
            <path d="M0.5,27.0000001 C0.5,23.2000001 6.9,11.4 17,6.5 C17.2,6.4 18,5.99999998 18.5,6.5 C19,7.00000002 18.5,7.3 18.3,7.5 C8.1,12.4 2.5,24 2.5,27 C2.5,27.3 2.5,28.5000001 1.5,28.5000001 C0.5,28.5000001 0.5,27.3000001 0.5,27.0000001 Z" id="XMLID_794_"></path>
        </g>
    </g>
</svg>