<?xml version="1.0" encoding="UTF-8" standalone="no"?>
<svg width="71px" height="71px" viewBox="0 0 71 71" version="1.1" xmlns="http://www.w3.org/2000/svg" xmlns:xlink="http://www.w3.org/1999/xlink">
    <!-- Generator: Sketch 3.8.3 (29802) - http://www.bohemiancoding.com/sketch -->
    <title>mobile_touch.3</title>
    <desc>Created with Sketch.</desc>
    <defs></defs>
    <g id="Page-1" stroke="none" stroke-width="1" fill="none" fill-rule="evenodd">
        <g id="mobile_touch.3" fill="#FFFFFF">
            <g id="Group">
                <g id="XMLID_25_">
                    <g id="XMLID_30_">
                        <path d="M13.3125,71 L10.3541667,71 C4.64458333,71 0,66.3554167 0,60.6458333 L0,10.3541667 C0,4.64458333 4.64458333,0 10.3541667,0 L31.0625,0 C36.7720833,0 41.4166667,4.64458333 41.4166667,10.3541667 L41.4166667,25.1458333 C41.4166667,25.9623333 40.754,26.625 39.9375,26.625 C39.121,26.625 38.4583333,25.9623333 38.4583333,25.1458333 L38.4583333,10.3541667 C38.4583333,6.27758333 35.1390833,2.95833333 31.0625,2.95833333 L10.3541667,2.95833333 C6.27758333,2.95833333 2.95833333,6.27758333 2.95833333,10.3541667 L2.95833333,60.6458333 C2.95833333,64.7224167 6.27758333,68.0416667 10.3541667,68.0416667 L13.3125,68.0416667 C14.129,68.0416667 14.7916667,68.7043333 14.7916667,69.5208333 C14.7916667,70.3373333 14.129,71 13.3125,71 L13.3125,71 Z" id="Shape"></path>
                    </g>
                    <g id="XMLID_29_" transform="translate(0.000000, 11.833333)">
                        <path d="M39.9375,2.95833333 L1.47916667,2.95833333 C0.662666667,2.95833333 0,2.29566667 0,1.47916667 C0,0.662666667 0.662666667,0 1.47916667,0 L39.9375,0 C40.754,0 41.4166667,0.662666667 41.4166667,1.47916667 C41.4166667,2.29566667 40.754,2.95833333 39.9375,2.95833333 L39.9375,2.95833333 Z" id="Shape"></path>
                    </g>
                    <g id="XMLID_28_" transform="translate(0.000000, 53.250000)">
                        <path d="M26.625,2.95833333 L1.47916667,2.95833333 C0.662666667,2.95833333 0,2.29566667 0,1.47916667 C0,0.662666667 0.662666667,0 1.47916667,0 L26.625,0 C27.4415,0 28.1041667,0.662666667 28.1041667,1.47916667 C28.1041667,2.29566667 27.4415,2.95833333 26.625,2.95833333 L26.625,2.95833333 Z" id="Shape"></path>
                    </g>
                    <g id="XMLID_27_" transform="translate(14.791667, 5.916667)">
                        <path d="M10.3541667,2.95833333 L1.47916667,2.95833333 C0.662666667,2.95833333 0,2.29566667 0,1.47916667 C0,0.662666667 0.662666667,0 1.47916667,0 L10.3541667,0 C11.1706667,0 11.8333333,0.662666667 11.8333333,1.47916667 C11.8333333,2.29566667 11.1706667,2.95833333 10.3541667,2.95833333 L10.3541667,2.95833333 Z" id="Shape"></path>
                    </g>
                    <g id="XMLID_26_" transform="translate(29.583333, 5.916667)">
                        <path d="M1.53833333,2.95833333 C0.721833333,2.95833333 0.044375,2.29566667 0.044375,1.47916667 C0.044375,0.662666667 0.69225,0 1.50875,0 L1.53833333,0 C2.35483333,0 3.0175,0.662666667 3.0175,1.47916667 C3.0175,2.29566667 2.35483333,2.95833333 1.53833333,2.95833333 L1.53833333,2.95833333 Z" id="Shape"></path>
                    </g>
                </g>
                <path d="M50.081625,71 L22.1875,71 C19.7409583,71 17.75,69.0090417 17.75,66.5625 C17.75,63.2994583 20.1847083,60.4949583 23.41225,60.0334583 L35.358,58.157875 L15.2176667,38.0175417 C13.0137083,35.8135833 13.0137083,32.2280833 15.2176667,30.0270833 C17.439375,27.805375 21.024875,27.8083333 23.225875,30.0093333 L28.4680417,35.2515 C28.7254167,34.3787917 29.19875,33.5534167 29.8880417,32.864125 C31.923375,30.822875 35.1154167,30.6572083 37.32825,32.349375 C37.5826667,31.453 38.0619167,30.609875 38.7630417,29.9057917 C40.8013333,27.8675 43.993375,27.7018333 46.2062083,29.394 C46.4547083,28.4946667 46.9339583,27.6515417 47.6380417,26.9474583 C49.85975,24.72575 53.44525,24.7287083 55.64625,26.9297083 L66.7695833,39.1535417 C69.4971667,42.1532917 71,46.0375833 71,50.0905 C71,54.430375 69.3107917,58.512875 66.2400417,61.5806667 L61.5865833,66.234125 C58.512875,69.3078333 54.4274167,71 50.081625,71 L50.081625,71 Z M19.2291667,31.311 C18.539875,31.311 17.8505833,31.5742917 17.324,32.0979167 C16.2560417,33.165875 16.2560417,34.8728333 17.30625,35.9230417 L39.502625,58.1194167 C39.8960833,58.512875 40.035125,59.0956667 39.8635417,59.62225 C39.689,60.1517917 39.236375,60.5393333 38.686125,60.625125 L23.8500833,62.9562917 C22.0514167,63.216625 20.7083333,64.7638333 20.7083333,66.5625 C20.7083333,67.379 21.371,68.0416667 22.1875,68.0416667 L50.081625,68.0416667 C53.6375417,68.0416667 56.9804583,66.6571667 59.4950417,64.1425833 L64.1485,59.489125 C66.660125,56.9775 68.0416667,53.6405 68.0416667,50.0905 C68.0416667,46.7742083 66.811,43.5969583 64.583375,41.1445 L53.507375,28.9709583 C52.5045,27.9769583 50.7975417,27.974 49.7473333,29.02125 C49.22075,29.5478333 48.9426667,30.2223333 48.9426667,30.9412083 C48.9426667,31.6600833 49.2237083,32.3375417 49.7325417,32.846375 L49.85975,32.9735833 C50.436625,33.5504583 50.436625,34.48825 49.85975,35.065125 C49.29175,35.633125 48.377625,35.642 47.7977917,35.0947083 L47.7977917,35.0947083 C47.7977917,35.0947083 47.7977917,35.09175 47.7948333,35.09175 L47.7948333,35.09175 L47.791875,35.09175 L47.791875,35.09175 L47.791875,35.09175 L47.791875,35.09175 C47.791875,35.09175 47.791875,35.09175 47.7889167,35.0887917 L47.7889167,35.0887917 L47.7889167,35.0887917 L47.7889167,35.0887917 L47.7889167,35.0887917 C47.7889167,35.0887917 47.7889167,35.0887917 47.7859583,35.0858333 L47.7859583,35.0858333 L47.783,35.082875 C47.783,35.082875 47.783,35.082875 47.7800417,35.0799167 L44.6945,31.994375 C43.64725,30.947125 41.934375,30.947125 40.887125,31.994375 C39.8191667,33.0623333 39.8191667,34.7692917 40.869375,35.8195 L43.9549167,38.9050417 C44.2300417,39.1801667 44.375,39.5588333 44.375,39.9375 C44.375,40.3161667 44.2300417,40.6948333 43.9430833,40.98475 C43.3662083,41.561625 42.4284167,41.561625 41.8515417,40.98475 L35.8076667,34.940875 C34.7604167,33.893625 33.0475417,33.893625 32.0002917,34.940875 C30.9323333,36.0088333 30.9323333,37.7157917 31.9825417,38.766 L38.0264167,44.809875 C38.313375,45.0968333 38.4583333,45.4755 38.4583333,45.8541667 C38.4583333,46.2328333 38.313375,46.6115 38.0264167,46.9014167 C37.4495417,47.4782917 36.51175,47.4782917 35.934875,46.9014167 L21.1343333,32.100875 C20.60775,31.5742917 19.9184583,31.311 19.2291667,31.311 L19.2291667,31.311 Z" id="Shape"></path>
            </g>
        </g>
    </g>
</svg>