<?xml version="1.0" encoding="UTF-8" standalone="no"?>
<svg width="82px" height="71px" viewBox="0 0 82 71" version="1.1" xmlns="http://www.w3.org/2000/svg" xmlns:xlink="http://www.w3.org/1999/xlink">
    <!-- Generator: Sketch 3.8.3 (29802) - http://www.bohemiancoding.com/sketch -->
    <title>Group 6</title>
    <desc>Created with Sketch.</desc>
    <defs></defs>
    <g id="Page-1" stroke="none" stroke-width="1" fill="none" fill-rule="evenodd">
        <g id="Group-6" transform="translate(0.678524, 0.588597)" fill="#FFFFFF">
            <path d="M78.8092069,70.0677083 L1.67679164,70.0677083 C1.15363265,70.0677083 0.660655904,69.8352109 0.345419077,69.4434688 C0.0301822494,69.0485417 -0.0771324152,68.5357734 0.0603644989,68.0580391 L10.1211143,33.0241849 C10.3189757,32.3298776 10.9796316,31.8489583 11.7375414,31.8489583 L48.6269574,31.8489583 C49.5525464,31.8489583 50.3037491,32.562375 50.3037491,33.4414063 C50.3037491,34.3204375 49.5525464,35.0338542 48.6269574,35.0338542 L13.0186103,35.0338542 L3.87338868,66.8828125 L76.6126098,66.8828125 L67.4673883,35.0338542 L62.0412905,35.0338542 C61.1157015,35.0338542 60.3644989,34.3204375 60.3644989,33.4414063 C60.3644989,32.562375 61.1157015,31.8489583 62.0412905,31.8489583 L68.7484571,31.8489583 C69.5063669,31.8489583 70.1670228,32.3298776 70.3648842,33.0241849 L80.425634,68.0580391 C80.5631309,68.5357734 80.4558163,69.0485417 80.1405794,69.4434688 C79.8253426,69.8352109 79.3323659,70.0677083 78.8092069,70.0677083 L78.8092069,70.0677083 Z" id="Shape"></path>
            <path d="M21.7982913,70.0677083 C21.446165,70.0677083 21.0940388,69.9626068 20.7922163,69.7492187 C20.0510744,69.220526 19.9001631,68.2236536 20.456858,67.5197917 L35.5479827,48.4104167 C36.1046775,47.7033698 37.1543491,47.5632344 37.895491,48.0919271 C38.6366329,48.6206198 38.7875441,49.6174922 38.2308493,50.3213542 L23.1397246,69.4307292 C22.8110734,69.8479505 22.3080359,70.0677083 21.7982913,70.0677083 L21.7982913,70.0677083 Z" id="Shape"></path>
            <path d="M68.7484571,70.0677083 C68.4298667,70.0677083 68.1079227,69.9817161 67.8195145,69.8001771 L12.4853905,34.7663229 C11.7140664,34.2790339 11.5061442,33.2917161 12.0192424,32.5591901 C12.5323407,31.8266641 13.5685979,31.6292005 14.3432757,32.1164896 L69.6773996,67.1503438 C70.4487238,67.6376328 70.6566459,68.6249505 70.1435477,69.3574766 C69.8216037,69.8192865 69.288384,70.0677083 68.7484571,70.0677083 L68.7484571,70.0677083 Z" id="Shape"></path>
            <path d="M28.5054578,60.5130208 C28.1868674,60.5130208 27.8649234,60.4270286 27.5765152,60.2454896 L7.45501561,47.5059063 C6.68369146,47.0186172 6.4757693,46.0312995 6.98886754,45.2987734 C7.49861219,44.5662474 8.53822301,44.3687839 9.31290074,44.8560729 L29.4344004,57.5956563 C30.2057245,58.0829453 30.4136467,59.070263 29.9005484,59.8027891 C29.5786045,60.264599 29.0453847,60.5130208 28.5054578,60.5130208 L28.5054578,60.5130208 Z" id="Shape"></path>
            <path d="M62.0412905,55.7356771 C61.7025786,55.7356771 61.3638667,55.6401302 61.0687514,55.4394818 C60.3141951,54.9298984 60.1398088,53.933026 60.6797357,53.2196094 L69.0636939,42.072474 C69.6036208,41.3590573 70.6499388,41.1934427 71.4011414,41.703026 C72.1556977,42.2126094 72.330084,43.2094818 71.7901571,43.9228984 L63.4061989,55.0700339 C63.0775478,55.5031797 62.5644495,55.7356771 62.0412905,55.7356771 L62.0412905,55.7356771 Z" id="Shape"></path>
            <path d="M77.1324152,65.2903646 C76.8171784,65.2903646 76.498588,65.2075573 76.216887,65.0292031 L27.5899296,34.7726927 C26.8152518,34.2917734 26.6006225,33.3044557 27.10366,32.5687448 C27.6134047,31.8362188 28.6530155,31.6292005 29.4243396,32.1069349 L78.0512971,62.3634453 C78.8259748,62.8443646 79.0406041,63.8316823 78.5375666,64.5673932 C78.2122691,65.0355729 77.6790493,65.2903646 77.1324152,65.2903646 L77.1324152,65.2903646 Z" id="Shape"></path>
            <path d="M43.5965825,70.0677083 C43.3048208,70.0677083 43.0063519,69.9944557 42.7347116,69.8415807 L34.3507534,65.064237 C33.9583842,64.8412943 33.6766832,64.4718464 33.5794293,64.0482552 C33.4788218,63.6214792 33.566015,63.1787786 33.8208873,62.8157005 L37.1744706,58.0383568 C37.6674473,57.3313099 38.6567544,57.1115521 39.4314321,57.5574375 L47.8153903,62.3347812 C48.2077595,62.557724 48.4894605,62.9271719 48.5867144,63.350763 C48.6873219,63.7775391 48.6001288,64.2202396 48.3452564,64.5833177 L44.9916732,69.3606615 C44.6697292,69.8161016 44.139863,70.0677083 43.5965825,70.0677083 L43.5965825,70.0677083 Z M37.5836077,63.1915182 L43.0901915,66.3286406 L44.5791824,64.2043151 L39.0725987,61.0671927 L37.5836077,63.1915182 L37.5836077,63.1915182 Z" id="Shape"></path>
            <path d="M55.334124,22.2942708 C50.7128862,22.2942708 46.9501658,18.7208177 46.9501658,14.3320313 C46.9501658,9.94324479 50.7128862,6.36979167 55.334124,6.36979167 C59.9553617,6.36979167 63.7180822,9.94324479 63.7180822,14.3320313 C63.7180822,18.7208177 59.9553617,22.2942708 55.334124,22.2942708 L55.334124,22.2942708 Z M55.334124,9.5546875 C52.5607106,9.5546875 50.3037491,11.6981224 50.3037491,14.3320313 C50.3037491,16.9659401 52.5607106,19.109375 55.334124,19.109375 C58.1075373,19.109375 60.3644989,16.9659401 60.3644989,14.3320313 C60.3644989,11.6981224 58.1075373,9.5546875 55.334124,9.5546875 L55.334124,9.5546875 Z" id="Shape"></path>
            <path d="M55.334124,44.5885417 C54.7405397,44.5885417 54.1905521,44.2891615 53.8887296,43.8050573 C52.4936389,41.5533359 40.2429993,21.5904089 40.2429993,14.3320312 C40.2429993,6.43030469 47.0138839,0 55.334124,0 C63.6543641,0 70.4252487,6.43030469 70.4252487,14.3320312 C70.4252487,21.5904089 58.174609,41.5533359 56.7795184,43.8050573 C56.4776959,44.2891615 55.9277082,44.5885417 55.334124,44.5885417 L55.334124,44.5885417 Z M55.334124,3.18489583 C48.8617083,3.18489583 43.5965825,8.18518229 43.5965825,14.3320313 C43.5965825,19.1348542 51.0817804,32.683401 55.334124,39.808013 C59.5864676,32.683401 67.0716654,19.1348542 67.0716654,14.3320313 C67.0716654,8.18518229 61.8065397,3.18489583 55.334124,3.18489583 L55.334124,3.18489583 Z" id="Shape"></path>
        </g>
    </g>
</svg>